<?xml version="1.0" encoding="utf-8"?>
<svg viewBox="98.001 28 503.998 503.999" width="503.998pt" height="503.999pt" xmlns="http://www.w3.org/2000/svg">
  <path d="M 171.81 101.81 C 124.552 149.068 98.001 213.17 98.001 280 C 98.001 346.832 124.552 410.93 171.81 458.19 C 219.072 505.452 283.17 531.999 350 531.999 C 416.83 531.999 480.93 505.452 528.19 458.19 C 575.448 410.932 601.999 346.83 601.999 280 C 601.999 213.164 575.448 149.07 528.19 101.81 C 496.913 70.529 457.948 48.037 415.22 36.587 C 372.493 25.138 327.501 25.138 284.77 36.587 C 242.043 48.036 203.079 70.528 171.8 101.81 L 171.81 101.81 Z M 510.89 234.81 C 527.765 264.06 527.765 300.087 510.89 329.337 L 399.51 329.337 L 399.51 440.717 C 370.26 457.592 334.233 457.592 304.983 440.717 L 304.983 329.337 L 189.173 329.337 C 172.298 300.087 172.298 264.06 189.173 234.81 L 305.203 235.201 L 305.203 119.341 C 334.453 102.466 370.48 102.466 399.73 119.341 L 399.73 235.151 L 510.89 234.81 Z"/>
</svg>