<?xml version="1.0" encoding="utf-8"?>
<!-- Generator: Adobe Illustrator 27.2.0, SVG Export Plug-In . SVG Version: 6.00 Build 0)  -->
<svg version="1.1" id="Layer_1" xmlns="http://www.w3.org/2000/svg" xmlns:xlink="http://www.w3.org/1999/xlink" x="0px" y="0px"
	 viewBox="0 0 144 144" style="enable-background:new 0 0 144 144;" xml:space="preserve">
<style type="text/css">
	.st0{fill:#4496D2;}
</style>
<g>
	<rect x="71.96" y="73.34" class="st0" width="0.07" height="0.07"/>
	<rect x="71.96" y="73.34" class="st0" width="0.07" height="0.07"/>
	<path class="st0" d="M141.99,60.8c-1.66-9.22-8.53-16.15-17.05-18.3c2.29-8.39-0.28-17.75-7.42-23.71
		c-7.21-6.03-16.92-6.93-24.82-3.12C88.95,7.76,80.98,2.35,71.75,2.35c-9.36,0-17.4,5.55-21.01,13.59
		c-7.83-3.74-17.47-2.77-24.61,3.19c-7.21,6.1-9.78,15.53-7.35,23.99C10.4,45.34,3.67,52.27,2.01,61.35
		c-1.59,9.22,2.43,18.09,9.71,23.02c-4.99,7.14-5.75,16.78-1.11,24.82c4.71,8.11,13.59,12.27,22.32,11.44
		c0.69,8.6,6.38,16.5,15.04,19.62c8.8,3.19,18.23,0.76,24.33-5.55c6.17,6.17,15.53,8.6,24.27,5.41c8.8-3.19,14.42-11.16,15.04-19.97
		c8.67,0.76,17.47-3.4,22.12-11.44c4.71-8.11,3.88-17.89-1.25-25.03C139.63,78.75,143.58,69.88,141.99,60.8z M101.77,58.51
		L68.36,94.98c-2.7,2.91-7.28,2.98-10.05,0.21L42.43,79.31c-2.7-2.7-2.77-7.14-0.07-9.85c1.39-1.39,3.12-2.01,4.92-2.01
		s3.54,0.62,4.92,2.01l10.75,10.75l28.56-31.13c2.63-2.84,7-2.98,9.84-0.42c1.46,1.39,2.22,3.26,2.22,5.13
		C103.58,55.53,102.95,57.19,101.77,58.51z"/>
	<rect x="71.96" y="73.34" class="st0" width="0.07" height="0.14"/>
	<rect x="71.96" y="73.41" class="st0" width="0.07" height="0.07"/>
	<rect x="71.96" y="73.34" class="st0" width="0.07" height="0.14"/>
	<rect x="71.96" y="73.41" class="st0" width="0.07" height="0.07"/>
	<rect x="71.96" y="73.41" class="st0" width="0.07" height="0.07"/>
</g>
</svg>
