<?xml version="1.0" encoding="utf-8"?>
<svg viewBox="95.669 21.511 508.658 516.985" width="508.658pt" height="516.985pt" xmlns="http://www.w3.org/2000/svg">
  <path d="M 106.45 43.102 L 113.317 43.102 L 113.317 77.622 C 113.317 83.653 118.165 88.392 124.087 88.392 L 575.857 88.392 C 581.888 88.392 586.627 83.654 586.627 77.622 L 586.627 43.102 L 593.557 43.102 C 599.51 43.102 604.327 38.286 604.327 32.332 C 604.327 26.378 599.51 21.562 593.557 21.562 L 576.108 21.562 C 576.018 21.558 575.948 21.511 575.858 21.511 L 124.088 21.511 C 123.998 21.511 123.928 21.558 123.838 21.562 L 106.447 21.562 C 100.494 21.562 95.677 26.378 95.677 32.332 C 95.677 38.286 100.493 43.102 106.447 43.102 L 106.45 43.102 Z"/>
  <path d="M 593.55 355.78 L 586.62 355.78 L 586.62 321.221 C 586.62 315.299 581.882 310.451 575.85 310.451 L 124.08 310.455 C 118.158 310.455 113.31 315.299 113.31 321.225 L 113.31 355.784 L 106.439 355.78 C 100.486 355.78 95.669 360.596 95.669 366.55 C 95.669 372.504 100.486 377.32 106.439 377.32 L 124.017 377.32 C 124.037 377.32 124.056 377.332 124.076 377.332 L 223.814 377.332 L 185.365 525.012 C 183.873 530.766 187.322 536.645 193.072 538.149 C 193.986 538.379 194.892 538.496 195.794 538.496 C 200.58 538.496 204.943 535.289 206.204 530.442 L 246.067 377.342 L 453.917 377.342 L 493.78 530.442 C 495.042 535.289 499.405 538.496 504.19 538.496 C 505.097 538.496 506.011 538.379 506.913 538.149 C 512.667 536.645 516.116 530.766 514.62 525.012 L 476.171 377.332 L 575.839 377.332 C 575.859 377.332 575.878 377.32 575.898 377.32 L 593.539 377.32 C 599.492 377.32 604.309 372.504 604.309 366.55 C 604.321 360.597 599.504 355.78 593.551 355.78 L 593.55 355.78 Z"/>
  <path d="M 575.86 288.91 C 579.653 288.91 583.243 289.687 586.63 290.894 L 586.626 107.944 C 583.243 109.151 579.649 109.929 575.856 109.929 L 124.086 109.929 C 120.293 109.929 116.703 109.151 113.316 107.944 L 113.316 290.894 C 116.699 289.687 120.289 288.91 124.086 288.91 L 172.332 288.91 L 172.332 235.066 C 172.332 229.144 177.18 224.296 183.102 224.296 L 226.18 224.296 C 232.102 224.296 236.95 229.14 236.95 235.066 L 236.95 288.91 L 269.259 288.91 L 269.259 127.37 C 269.259 121.448 274.107 116.6 280.029 116.6 L 323.107 116.6 C 329.029 116.6 333.877 121.444 333.877 127.37 L 333.877 288.91 L 366.186 288.91 L 366.186 202.758 C 366.186 196.836 371.034 191.988 376.956 191.988 L 420.034 191.988 C 425.956 191.988 430.804 196.832 430.804 202.758 L 430.804 288.91 L 463.113 288.91 L 463.105 159.68 C 463.105 153.758 467.953 148.91 473.875 148.91 L 516.953 148.91 C 522.875 148.91 527.723 153.754 527.723 159.68 L 527.723 288.91 L 575.86 288.91 Z"/>
</svg>